<?xml version="1.0" encoding="utf-8"?>
<!-- Generator: Adobe Illustrator 16.0.0, SVG Export Plug-In . SVG Version: 6.00 Build 0)  -->
<!DOCTYPE svg PUBLIC "-//W3C//DTD SVG 1.1//EN" "http://www.w3.org/Graphics/SVG/1.1/DTD/svg11.dtd">
<svg version="1.1" id="Layer_1" xmlns="http://www.w3.org/2000/svg" xmlns:xlink="http://www.w3.org/1999/xlink" x="0px" y="0px"
	 width="101.524px" height="133.954px" viewBox="21.238 5.023 101.524 133.954"
	 enable-background="new 21.238 5.023 101.524 133.954" xml:space="preserve">
<g>
	<path fill="#7EBDC2" d="M122.756,44.937c-0.004-0.209-0.021-0.417-0.062-0.621c-0.008-0.037-0.021-0.072-0.029-0.108
		c-0.038-0.164-0.088-0.324-0.148-0.481c-0.024-0.064-0.054-0.126-0.082-0.188c-0.062-0.132-0.131-0.259-0.209-0.384
		c-0.031-0.051-0.061-0.104-0.095-0.153c-0.112-0.161-0.235-0.316-0.377-0.459l-0.015-0.015c-0.002,0-0.002-0.001-0.002-0.002
		L85.74,6.064c-0.004-0.003-0.006-0.005-0.01-0.007c-0.018-0.019-0.039-0.033-0.059-0.051c-0.13-0.125-0.268-0.238-0.411-0.34
		c-0.053-0.037-0.108-0.069-0.163-0.104c-0.123-0.077-0.25-0.146-0.381-0.207c-0.06-0.027-0.117-0.056-0.18-0.08
		c-0.182-0.072-0.366-0.132-0.557-0.172c-0.01-0.002-0.021-0.007-0.03-0.009c-0.208-0.042-0.421-0.06-0.634-0.064
		c-0.022,0-0.045-0.007-0.067-0.007H31.938c-5.9,0-10.7,4.8-10.7,10.7v112.552c0,5.899,4.8,10.701,10.7,10.701h80.123
		c5.9,0,10.701-4.802,10.701-10.701V45C122.762,44.979,122.756,44.958,122.756,44.937z M115.762,128.275
		c0,2.041-1.66,3.701-3.701,3.701H31.938c-2.041,0-3.7-1.66-3.7-3.701V15.724c0-2.041,1.66-3.7,3.7-3.7H79.75V45
		c0,1.933,1.566,3.5,3.5,3.5h32.512V128.275z"/>
	<g>
		<path fill="#7EBDC2" d="M97.461,70.833H46.539c-1.933,0-3.5-1.567-3.5-3.5s1.567-3.5,3.5-3.5h50.922c1.934,0,3.5,1.567,3.5,3.5
			S99.395,70.833,97.461,70.833z"/>
	</g>
	<g>
		<path fill="#7EBDC2" d="M97.461,86.084H46.539c-1.933,0-3.5-1.566-3.5-3.5s1.567-3.5,3.5-3.5h50.922c1.934,0,3.5,1.566,3.5,3.5
			S99.395,86.084,97.461,86.084z"/>
	</g>
	<g>
		<path fill="#7EBDC2" d="M97.461,101.334H46.539c-1.933,0-3.5-1.566-3.5-3.5s1.567-3.5,3.5-3.5h50.922c1.934,0,3.5,1.566,3.5,3.5
			S99.395,101.334,97.461,101.334z"/>
	</g>
	<g>
		<path fill="#7EBDC2" d="M81.507,116.585H46.539c-1.933,0-3.5-1.567-3.5-3.5s1.567-3.5,3.5-3.5h34.968c1.933,0,3.5,1.567,3.5,3.5
			S83.439,116.585,81.507,116.585z"/>
	</g>
</g>
</svg>
